<svg width="53" height="70" viewBox="0 0 53 70" fill="none" xmlns="http://www.w3.org/2000/svg">
<path d="M26.3335 69.9907C40.8075 69.9907 52.5835 58.2147 52.5835 43.7407C52.5835 32.747 45.7868 23.3158 36.1773 19.4131V18.5845C36.1773 15.6584 33.6202 14.5529 31.6863 14.281C31.1788 12.1612 29.1068 11.289 27.4357 11.028V9.65537C29.782 9.46807 31.6356 8.64584 32.9541 7.20209C35.2826 4.65256 34.992 1.1341 34.9788 0.985625C34.9275 0.422207 34.4549 -0.00927734 33.8893 -0.00927734C31.0325 -0.00927734 28.8173 0.830313 27.3049 2.48639C26.9192 2.90871 26.6111 3.35838 26.3559 3.8142C26.1008 3.35838 25.7927 2.90871 25.407 2.48639C23.8946 0.830313 21.6792 -0.00927734 18.8226 -0.00927734C18.257 -0.00927734 17.7844 0.422207 17.7331 0.985625C17.7197 1.1341 17.4292 4.65242 19.7578 7.20209C21.0709 8.6401 22.9157 9.46041 25.2484 9.65209V11.0254C23.5744 11.2829 21.49 12.1538 20.9807 14.281C19.0468 14.5528 16.4898 15.6583 16.4898 18.5845V19.4131C6.88021 23.3159 0.0835114 32.747 0.0835114 43.7407C0.0835114 58.2147 11.8594 69.9907 26.3335 69.9907ZM2.28045 44.1155L4.78103 45.9874C5.82187 46.7677 6.99205 47.3482 8.26312 47.714L10.3427 48.3047C11.1625 48.5423 11.7937 49.1735 12.0293 49.987L12.6712 52.2546C12.9746 53.311 13.5422 54.2765 14.3091 55.0434C15.8129 56.5623 17.7515 59.7911 14.6256 64.7522C7.36515 60.6904 2.41703 52.9779 2.28045 44.1155ZM16.59 65.7344C20.5011 59.3656 17.4401 55.0964 15.8595 53.5007C15.3431 52.9843 14.9783 52.3621 14.7753 51.655L14.1323 49.3847C13.6852 47.8408 12.4959 46.6515 10.9455 46.2023L8.86427 45.6112C7.85324 45.3201 6.92082 44.8581 6.09257 44.2365L2.38203 41.4586C2.57808 39.3854 3.03513 37.3871 3.72529 35.4996C5.02357 35.2963 6.2792 35.4493 7.59703 35.6347C8.53478 35.7666 9.50945 35.9039 10.5343 35.9039C13.0118 35.9039 15.7814 35.1023 19.0316 31.4877C21.0802 29.2094 21.9316 27.0096 21.5615 24.9498C21.2909 23.4452 20.3522 22.0655 18.8264 20.8835C20.6598 20.2798 22.5892 19.8925 24.5861 19.7484C24.7122 22.883 24.8106 29.4234 23.6726 32.8448C22.6519 35.9017 23.9603 36.9357 24.5702 37.238C24.9067 37.4052 25.2768 37.4857 25.6715 37.4857C27.4147 37.4857 29.6246 35.9107 31.4319 33.2645C31.6855 32.8928 32.1107 32.6621 32.5411 32.6621H36.9637C38.7469 32.6621 40.4926 31.939 41.7542 30.6781L44.4739 27.9583C47.1667 31.0495 49.0873 34.829 49.9241 38.9984C39.6197 37.6336 32.8249 38.112 29.7341 40.4316C27.6492 41.9954 26.47 43.7555 26.2302 45.6633C25.9514 47.8796 26.9965 49.7178 27.9226 50.8698C28.0593 51.0396 28.0588 51.2922 27.922 51.4839L26.7743 53.0941C25.2298 55.2544 24.693 57.9737 25.3014 60.5537L27.0044 67.786C26.7809 67.7921 26.5583 67.8031 26.3332 67.8031C22.8662 67.8032 19.571 67.0602 16.59 65.7344ZM25.7481 33.5364C26.9811 29.8303 26.9199 23.2771 26.7733 19.6893C33.0467 19.8028 38.7384 22.3267 42.964 26.3751L40.2077 29.131C39.3538 29.9849 38.1713 30.4746 36.9638 30.4746H32.5412C31.3813 30.4746 30.2912 31.0562 29.6258 32.0309C27.7412 34.7914 25.8795 35.4489 25.5548 35.2881C25.4956 35.2177 25.3556 34.7135 25.7481 33.5364ZM29.2134 67.6248L27.4304 60.0524C26.9668 58.0859 27.3764 56.0133 28.5552 54.3651L29.7034 52.7539C30.4068 51.768 30.3752 50.4297 29.6275 49.4993C28.9669 48.6774 28.2176 47.3919 28.4007 45.9361C28.5635 44.639 29.4538 43.3758 31.0469 42.1812C33.6521 40.229 40.4659 39.9066 50.2674 41.253C50.3517 42.071 50.3957 42.9007 50.3957 43.7406C50.396 56.0337 41.1277 66.1964 29.2134 67.6248ZM28.9321 3.94805C29.8219 2.98145 31.1101 2.40682 32.7698 2.23373C32.6726 3.19555 32.3474 4.63055 31.3268 5.74029C30.437 6.70689 29.1488 7.28152 27.4891 7.45461C27.5864 6.49279 27.9117 5.05779 28.9321 3.94805ZM21.3848 5.74029C20.3637 4.63055 20.039 3.19445 19.9418 2.23373C21.6017 2.40682 22.8897 2.98145 23.7795 3.94805C24.8001 5.05779 25.1253 6.49279 25.2225 7.45461C23.5628 7.28166 22.2746 6.70703 21.3848 5.74029ZM18.6773 18.5845C18.6773 16.4424 21.8277 16.3981 21.9585 16.397C22.5625 16.397 23.0523 15.9072 23.0523 15.3032C23.0523 13.1611 26.2027 13.1168 26.3304 13.1157C26.4643 13.1168 29.6148 13.1611 29.6148 15.3032C29.6148 15.9045 30.1039 16.3933 30.7054 16.397C30.8393 16.3981 33.9898 16.4424 33.9898 18.5845V18.6327C31.5663 17.8921 28.9962 17.4907 26.3335 17.4907C23.6708 17.4907 21.1007 17.8923 18.6773 18.6327V18.5845ZM16.3537 21.854C17.6819 22.6207 19.1301 23.788 19.4088 25.3371C19.6534 26.6979 18.9789 28.275 17.4051 30.0256C13.5909 34.2687 10.9547 33.8997 7.9015 33.4688C6.87187 33.3244 5.81968 33.1773 4.7072 33.2013C7.15351 28.2018 11.2841 24.1749 16.3537 21.854Z" fill="url(#paint0_linear_25_1160)"/>
<defs>
<linearGradient id="paint0_linear_25_1160" x1="0.0880151" y1="34.9973" x2="52.5744" y2="34.9973" gradientUnits="userSpaceOnUse">
<stop stop-color="#3CAB90"/>
<stop offset="1" stop-color="#0E6752"/>
</linearGradient>
</defs>
</svg>
